Coordinates
version=1
nRows=7
nColumns=40
inDegrees=yes

Units are S.I. units (second, meters, Newtons, ...)
If the header above contains a line with 'inDegrees', this indicates whether rotational values are in degrees (yes) or radians (no).

endheader
time	pelvis_tilt	pelvis_list	pelvis_rotation	pelvis_tx	pelvis_ty	pelvis_tz	hip_flexion_r	hip_adduction_r	hip_rotation_r	knee_angle_r	knee_angle_r_beta	ankle_angle_r	subtalar_angle_r	mtp_angle_r	hip_flexion_l	hip_adduction_l	hip_rotation_l	knee_angle_l	knee_angle_l_beta	ankle_angle_l	subtalar_angle_l	mtp_angle_l	lumbar_extension	lumbar_bending	lumbar_rotation	arm_flex_r	arm_add_r	arm_rot_r	elbow_flex_r	pro_sup_r	wrist_flex_r	wrist_dev_r	arm_flex_l	arm_add_l	arm_rot_l	elbow_flex_l	pro_sup_l	wrist_flex_l	wrist_dev_l
      6.50000000	     26.83064380	     -0.69228555	   -176.68077435	      0.37993038	      0.56875401	     -0.92875920	     94.54871478	    -46.33360405	     12.37121127	     63.14786703	      1.10213820	     -5.45982977	      0.00000000	      0.00000000	     93.84166907	    -42.25488622	      5.05474689	     64.40198319	      1.12402665	     -5.43771074	      0.00000000	      0.00000000	    -32.56993804	     -4.98963775	     -1.16469651	     54.30330028	    -18.31498989	     85.64486600	     19.78730029	     75.51633135	      0.00000000	      0.00000000	     55.53809690	    -13.47261833	     76.80015703	     13.28899752	     64.62009894	      0.00000000	      0.00000000
      6.50500000	     26.71647750	     -0.72009607	   -176.71574738	      0.37972630	      0.56997076	     -0.92887853	     94.22089252	    -46.31575768	     12.19001588	     62.97384453	      1.09910093	     -5.46449368	      0.00000000	      0.00000000	     93.48669187	    -42.29489717	      4.85417849	     64.21748472	      1.12080655	     -5.49361476	      0.00000000	      0.00000000	    -32.87604461	     -5.05519670	     -1.15272208	     54.46835360	    -18.24622837	     85.74209307	     19.64971312	     76.26182305	      0.00000000	      0.00000000	     55.84012174	    -13.68698135	     77.99247140	     13.55709572	     64.80414475	      0.00000000	      0.00000000
      6.51000000	     26.79653651	     -0.80373734	   -176.74301500	      0.37971977	      0.57080562	     -0.92896799	     94.20658174	    -46.22589221	     12.25751774	     62.78197186	      1.09575212	     -5.54128272	      0.00000000	      0.00000000	     93.27546939	    -42.27722521	      4.62529750	     64.03717395	      1.11765953	     -5.48075269	      0.00000000	      0.00000000	    -32.94399817	     -5.15676942	     -1.17546917	     54.55279327	    -18.17497055	     86.01269285	     19.53544177	     75.60211331	      0.00000000	      0.00000000	     55.75009876	    -13.64151885	     76.87780355	     13.60939173	     63.99620552	      0.00000000	      0.00000000
      6.51500000	     26.84682417	     -0.62481833	   -176.62226058	      0.37974652	      0.57159651	     -0.92867463	     93.89400061	    -46.37904031	     11.82546913	     62.63367895	      1.09316392	     -5.59927652	      0.00000000	      0.00000000	     93.34735918	    -42.03983911	      4.88444968	     63.87287074	      1.11479190	     -5.55043639	      0.00000000	      0.00000000	    -33.03244835	     -4.93497123	     -1.16177603	     54.61460003	    -18.24442363	     85.69935885	     19.56286393	     76.49907846	      0.00000000	      0.00000000	     55.95236687	    -13.65209335	     77.75055871	     13.60131387	     64.60962917	      0.00000000	      0.00000000
      6.52000000	     27.10057760	     -0.70790671	   -176.77811320	      0.37990993	      0.57207931	     -0.92893707	     94.04902069	    -46.13186544	     11.88962555	     62.41981361	      1.08943127	     -5.69923437	      0.00000000	      0.00000000	     93.34796602	    -42.11939771	      4.72491741	     63.70567024	      1.11187370	     -5.57426459	      0.00000000	      0.00000000	    -32.89380899	     -5.11854312	     -1.07482725	     54.65105968	    -18.21429643	     85.92247835	     19.54193390	     75.55567718	      0.00000000	      0.00000000	     55.80661104	    -13.55626178	     76.53608428	     13.59200824	     63.75073933	      0.00000000	      0.00000000
      6.52500000	     27.07778828	     -0.61814486	   -176.77175944	      0.37977842	      0.57306038	     -0.92883189	     93.70518855	    -46.17142527	     11.55479269	     62.22997406	      1.08611794	     -5.72597192	      0.00000000	      0.00000000	     93.23534743	    -42.05750427	      4.78391998	     63.54371712	      1.10904708	     -5.64734176	      0.00000000	      0.00000000	    -33.06901221	     -5.01785549	     -1.04194226	     54.75525729	    -18.21163338	     86.08256422	     19.51859111	     75.08150325	      0.00000000	      0.00000000	     55.83113880	    -13.53331146	     76.16199177	     13.62481920	     63.43380179	      0.00000000	      0.00000000
      6.53000000	     27.10910073	     -0.52478075	   -176.76485271	      0.37977967	      0.57387580	     -0.92875648	     93.46059452	    -46.18389402	     11.25932308	     62.06443299	      1.08322870	     -5.77697315	      0.00000000	      0.00000000	     93.19736326	    -41.97868540	      4.89048285	     63.38909678	      1.10634845	     -5.64581653	      0.00000000	      0.00000000	    -33.18129837	     -4.93476149	     -0.98427313	     54.83497121	    -18.21727597	     85.94352479	     19.45059535	     75.75659730	      0.00000000	      0.00000000	     56.03460832	    -13.55733550	     76.94734631	     13.62794072	     63.88557329	      0.00000000	      0.00000000
